<svg width="694" height="302" viewBox="0 0 694 302" fill="none" xmlns="http://www.w3.org/2000/svg">
    <path d="M116.526 96.6489C113.116 89.4489 114.946 89.7689 108.256 74.4789C101.566 59.1889 109.696 50.0189 91.0756 47.4789C72.7656 44.9189 60.6556 45.6689 55.8356 44.2589C52.04 43.1025 48.4593 41.3324 45.2356 39.0189C44.4956 36.0889 43.1556 31.9289 43.4556 28.8189C43.9856 23.4589 41.3556 19.8189 35.5356 20.1989C34.5356 20.2689 36.4456 24.8689 35.4656 24.6789C28.3356 23.2589 12.6556 27.5089 12.6556 27.5089C12.6907 29.1831 12.9669 30.8435 13.4756 32.4389C14.2956 35.1289 25.0356 38.5989 23.6556 41.2589C22.2756 43.9189 23.5656 43.3189 22.6556 47.3289C21.7456 51.3389 28.4756 46.9689 32.1256 42.0989C35.7756 37.2289 35.1256 43.1589 37.7856 44.5389C38.6456 44.9789 39.9756 38.6789 41.2956 39.9489C43.0356 41.6689 43.6556 44.2589 43.6556 47.2589C43.6556 50.0389 43.2956 53.8089 37.3956 61.4689C32.3256 68.0489 36.1256 74.1089 42.0656 74.8589C65.0656 77.7589 81.7456 65.2289 85.2656 65.2589C91.9656 65.3189 93.8556 76.6289 97.8956 83.6989C104.896 95.9589 118.336 100.469 116.526 96.6489Z" fill="#FFC960"/>
    <path d="M102.956 94.6289L105.986 102.959L104.406 107.829L97.9656 107.319L99.9856 102.839L102.956 94.6289Z" fill="#79C651"/>
    <path d="M26.1556 72.7589C31.0156 77.0389 27.1556 81.7589 30.6856 87.4889" stroke="#252D32" stroke-width="3" stroke-linecap="round" stroke-linejoin="round"/>
    <path d="M35.4857 23.9689C30.8557 23.0789 24.9057 24.4189 22.2657 25.1889C18.7457 26.1889 11.0657 27.5089 11.0657 27.5089C11.0657 27.5089 11.4457 32.9489 14.0657 34.5089C15.9357 35.5789 19.8457 37.0389 21.9957 37.9189C24.1457 38.7989 25.7157 41.8289 23.1357 43.8089C20.0957 46.1089 13.3457 49.2589 12.3157 60.3989C12.0657 63.1689 13.1757 66.1389 14.8157 69.1189" stroke="#252D32" stroke-width="3" stroke-linecap="round" stroke-linejoin="round"/>
    <path d="M44.1556 33.7589C45.1556 39.7589 46.8556 44.4789 60.1556 44.4789C73.4556 44.4789 96.6056 44.4789 103.156 52.7589C111.156 62.7589 109.836 71.5489 116.156 79.7589C120.396 85.2689 121.156 93.7589 121.156 98.7589C121.156 98.7589 117.156 100.759 112.156 95.7589" stroke="#252D32" stroke-width="3" stroke-linecap="round" stroke-linejoin="round"/>
    <path d="M95.1556 93.7589C95.1556 93.7589 96.3756 100.679 93.1556 102.759C89.9356 104.839 88.1556 106.049 88.1556 107.759" stroke="#252D32" stroke-width="3" stroke-linecap="round" stroke-linejoin="round"/>
    <path d="M102.156 93.7589C101.156 98.3189 100.156 99.7589 101.156 102.759C101.156 102.759 97.1556 105.759 97.1556 106.759" stroke="#252D32" stroke-width="3" stroke-linecap="round" stroke-linejoin="round"/>
    <path d="M104.186 94.3089C105.186 98.8789 104.896 100.599 107.066 102.889C107.066 102.889 104.706 106.299 105.126 107.209" stroke="#252D32" stroke-width="3" stroke-linecap="round" stroke-linejoin="round"/>
    <path d="M39.1556 106.759C39.1556 105.759 43.1556 102.759 43.1556 102.759C42.1556 99.7589 43.1556 98.3189 44.1556 93.7589" stroke="#252D32" stroke-width="3" stroke-linecap="round" stroke-linejoin="round"/>
    <path d="M35.1556 88.7589C35.1556 88.7589 36.5356 95.7589 36.1556 99.7589C35.7756 103.759 32.1556 104.759 30.1556 106.759" stroke="#252D32" stroke-width="3" stroke-linecap="round" stroke-linejoin="round"/>
    <path d="M6.15564 107.759H121.156" stroke="#252D32" stroke-width="3" stroke-linecap="round" stroke-linejoin="round"/>
    <path d="M36.9357 31.6589C39.2357 27.2189 33.9357 19.9889 33.9357 19.9889C33.9357 19.9889 40.6557 19.1889 41.9357 21.8889C44.1057 26.3989 42.7257 29.0589 42.7257 29.0589" stroke="#252D32" stroke-width="3" stroke-linecap="round" stroke-linejoin="round"/>
    <path d="M21.1557 67.7589C21.1557 67.7589 20.1557 76.7589 24.1557 79.7589" stroke="#252D32" stroke-width="3" stroke-linecap="round" stroke-linejoin="round"/>
    <path d="M40.1556 82.7589C40.1556 82.7589 41.1556 89.7589 46.1556 92.7589" stroke="#252D32" stroke-width="3" stroke-linecap="round" stroke-linejoin="round"/>
    <path d="M48.1556 84.7589C48.1556 84.7589 51.1556 93.7589 57.1556 98.7589" stroke="#252D32" stroke-width="3" stroke-linecap="round" stroke-linejoin="round"/>
    <path d="M58.1556 87.7589C58.1556 87.7589 62.1556 95.7589 67.1556 97.7589" stroke="#252D32" stroke-width="3" stroke-linecap="round" stroke-linejoin="round"/>
    <path d="M89.1556 82.7589C95.1556 90.7589 101.156 93.7589 104.156 93.7589" stroke="#252D32" stroke-width="3" stroke-linecap="round" stroke-linejoin="round"/>
    <path d="M78.1556 86.7589C78.1556 86.7589 88.1556 94.7589 90.1556 94.7589" stroke="#252D32" stroke-width="3" stroke-linecap="round" stroke-linejoin="round"/>
    <path d="M67.1556 86.7589C68.235 88.9612 69.7762 90.9051 71.6744 92.4582C73.5726 94.0113 75.7832 95.1371 78.1556 95.7589" stroke="#252D32" stroke-width="3" stroke-linecap="round" stroke-linejoin="round"/>
    <path d="M29.5956 28.4189C29.4203 28.3283 29.2288 28.2731 29.0322 28.2565C28.8356 28.2398 28.6376 28.2621 28.4495 28.322C28.2615 28.3819 28.0871 28.4782 27.9363 28.6055C27.7855 28.7328 27.6612 28.8886 27.5706 29.0639C27.48 29.2392 27.4248 29.4307 27.4082 29.6273C27.3915 29.824 27.4138 30.0219 27.4737 30.21C27.5336 30.398 27.63 30.5724 27.7572 30.7232C27.8845 30.874 28.0403 30.9983 28.2156 31.0889C28.5697 31.2719 28.9819 31.3068 29.3617 31.1858C29.7414 31.0648 30.0576 30.798 30.2406 30.4439C30.4236 30.0898 30.4585 29.6776 30.3375 29.2978C30.2165 28.9181 29.9497 28.6019 29.5956 28.4189Z" fill="#252D32"/>
    <path d="M15.3156 26.6489C15.3156 26.6489 16.2056 27.1089 15.3156 28.8889C15.1548 29.2178 14.9305 29.5116 14.6555 29.7533C14.3805 29.995 14.0603 30.1797 13.7134 30.2969C13.3666 30.4141 12.9999 30.4613 12.6347 30.4359C12.2695 30.4105 11.9129 30.313 11.5856 30.1489C10.3756 29.7089 10.8356 28.8189 11.2956 27.9289C11.7556 27.0389 15.3156 26.6489 15.3156 26.6489Z" fill="#252D32"/>
    <path d="M431.901 81.4189L421.651 68.8289C421.651 68.8289 429.341 61.3889 426.901 56.4189C424.141 50.8389 419.291 54.0489 417.751 57.6389C417.751 57.6389 413.481 45.7389 413.031 46.6389C412.031 48.7389 389.721 45.9389 390.751 44.6389C391.541 43.6389 392.671 42.1089 394.191 39.9889C399.331 32.7889 409.621 27.0889 421.931 27.6589C428.2 27.8169 434.305 29.6916 439.581 33.0789C437.221 34.9589 431.971 44.0789 432.251 49.8489C432.781 60.2789 436.341 68.4489 440.251 72.9189C437.865 76.1165 435.056 78.9758 431.901 81.4189Z" fill="#FFC960"/>
    <path d="M448.971 81.4189L459.221 68.8289C459.221 68.8289 451.521 61.3889 453.971 56.4189C456.731 50.8389 461.571 54.0489 463.111 57.6389C463.111 57.6389 467.391 45.7389 467.841 46.6389C468.841 48.7389 491.151 45.9389 490.121 44.6389C489.331 43.6389 488.191 42.1089 486.671 39.9889C481.541 32.7889 471.251 27.0889 458.931 27.6589C452.666 27.8166 446.564 29.6914 441.291 33.0789C443.651 34.9589 448.901 44.0789 448.611 49.8489C448.091 60.2789 444.521 68.4489 440.611 72.9189C443.001 76.1171 445.813 78.9765 448.971 81.4189Z" fill="#FFC960"/>
    <path d="M429.461 114.259H452.071L440.771 106.039L429.461 114.259Z" fill="#79C651"/>
    <path d="M448.991 52.3189C448.991 62.8089 440.771 71.3189 440.771 71.3189C440.771 71.3189 432.551 62.8089 432.551 52.3189C432.551 41.8289 440.771 33.3189 440.771 33.3189C440.771 33.3189 448.991 41.8189 448.991 52.3189Z" fill="#79C651"/>
    <path d="M390.831 45.2589C389.8 46.4258 389.045 47.8109 388.624 49.3106C388.203 50.8102 388.127 52.3856 388.401 53.9189C389.181 59.4989 388.921 59.3389 388.791 61.4189C388.661 63.4989 384.311 73.5989 384.311 73.5989C384.311 73.5989 389.861 76.5389 389.961 76.9089C390.441 78.8589 390.851 86.2589 389.961 89.5689C389.281 92.0989 391.481 95.3089 396.281 95.3089C401.081 95.3089 411.991 92.7089 414.581 90.6389C416.331 89.3338 417.515 87.409 417.891 85.2589" stroke="#252D32" stroke-width="3" stroke-linecap="round" stroke-linejoin="round"/>
    <path d="M392.881 57.0689C396.309 56.721 399.75 57.5805 402.611 59.4989" stroke="#252D32" stroke-width="3" stroke-linecap="round" stroke-linejoin="round"/>
    <path d="M404.261 96.7589V104.759" stroke="#252D32" stroke-width="3" stroke-linecap="round" stroke-linejoin="round"/>
    <path d="M428.641 77.3089L421.251 69.3089C421.251 69.3089 429.341 61.4289 426.901 56.4589C424.141 50.8789 419.701 54.4589 418.161 58.0089C418.161 58.0089 413.991 45.2689 413.541 46.1889C412.541 48.2889 390.411 47.7189 386.001 42.3989C386.001 42.3989 387.451 40.7889 390.941 35.9189C396.071 28.7189 406.361 23.0189 418.681 23.5889C438.301 24.4889 447.921 38.1789 448.471 49.2689C449.471 69.8189 432.031 80.0989 432.031 84.1989C432.031 86.2589 433.031 96.5289 436.141 100.639C443.141 110.009 451.551 112.969 451.551 112.969" stroke="#252D32" stroke-width="3" stroke-linecap="round" stroke-linejoin="round"/>
    <path d="M490.031 45.2589C491.063 46.4261 491.818 47.8109 492.24 49.3102C492.663 50.8096 492.742 52.3849 492.471 53.9189C491.691 59.4989 491.951 59.3389 492.081 61.4189C492.211 63.4989 496.551 73.5789 496.551 73.5789C496.551 73.5789 491.001 76.5189 490.911 76.8889C490.421 78.8389 490.021 86.2389 490.911 89.5489C491.591 92.0789 489.381 95.2889 484.581 95.2889C479.781 95.2889 468.881 92.6889 466.281 90.6189C464.54 89.3152 463.357 87.3999 462.971 85.2589" stroke="#252D32" stroke-width="3" stroke-linecap="round" stroke-linejoin="round"/>
    <path d="M484.261 82.7589H490.261" stroke="#252D32" stroke-width="3" stroke-linecap="round" stroke-linejoin="round"/>
    <path d="M487.991 57.0689C484.564 56.7202 481.122 57.5797 478.261 59.4989" stroke="#252D32" stroke-width="3" stroke-linecap="round" stroke-linejoin="round"/>
    <path d="M487.301 63.4189C485.279 64.0538 483.144 64.2448 481.041 63.9789" stroke="#252D32" stroke-width="3" stroke-linecap="round" stroke-linejoin="round"/>
    <path d="M396.261 82.7589H391.261" stroke="#252D32" stroke-width="3" stroke-linecap="round" stroke-linejoin="round"/>
    <path d="M393.381 63.4789C395.403 64.1134 397.539 64.3045 399.641 64.0389" stroke="#252D32" stroke-width="3" stroke-linecap="round" stroke-linejoin="round"/>
    <path d="M476.261 96.7589V104.759" stroke="#252D32" stroke-width="3" stroke-linecap="round" stroke-linejoin="round"/>
    <path d="M452.221 77.3089L459.621 69.3089C459.621 69.3089 451.521 61.4289 453.971 56.4589C456.731 50.8789 461.161 54.4589 462.701 58.0089C462.701 58.0089 466.871 45.2689 467.331 46.1889C468.331 48.2889 490.451 47.7189 494.871 42.3989C494.871 42.3989 493.411 40.7889 489.931 35.9189C484.791 28.7189 474.511 23.0189 462.191 23.5889C442.571 24.4889 432.951 38.1789 432.391 49.2689C431.391 69.8189 448.831 80.0989 448.831 84.1989C448.831 86.2589 447.831 96.5289 444.721 100.639C437.721 110.009 429.311 112.969 429.311 112.969" stroke="#252D32" stroke-width="3" stroke-linecap="round" stroke-linejoin="round"/>
    <path d="M229.768 72.6089L200.218 99.1189C199.703 99.5996 199.289 100.179 199.002 100.823C198.715 101.467 198.561 102.162 198.548 102.867C198.536 103.572 198.665 104.272 198.929 104.926C199.194 105.58 199.587 106.174 200.085 106.672C200.584 107.171 201.177 107.564 201.831 107.828C202.485 108.092 203.185 108.221 203.89 108.209C204.595 108.197 205.29 108.042 205.934 107.755C206.578 107.468 207.158 107.055 207.638 106.539L234.438 76.6789C232.991 75.2015 231.43 73.8406 229.768 72.6089Z" fill="#F86464"/>
    <path d="M249.663 71.1767L241.715 79.1106L245.403 82.8049L253.35 74.871L249.663 71.1767Z" fill="#F86464"/>
    <path d="M258.548 80.1189L250.648 88.0189C250.031 88.6235 249.202 88.9622 248.338 88.9622C247.474 88.9622 246.645 88.6235 246.028 88.0189L245.708 87.6389C245.099 87.0245 244.757 86.1943 244.757 85.3289C244.757 84.4635 245.099 83.6332 245.708 83.0189L253.608 75.1189L258.548 80.1189Z" fill="#F86464"/>
    <path d="M235.768 57.2989L227.538 65.5089L223.558 61.5489L223.888 61.2189L231.788 53.3189L235.768 57.2989Z" fill="#F86464"/>
    <path d="M231.788 53.3189L223.888 61.2189C223.586 61.5228 223.227 61.7639 222.831 61.9285C222.436 62.093 222.012 62.1777 221.583 62.1777C221.155 62.1777 220.731 62.093 220.335 61.9285C219.939 61.7639 219.58 61.5228 219.278 61.2189L218.928 60.8789C218.322 60.2667 217.983 59.4402 217.983 58.5789C217.983 57.7176 218.322 56.8911 218.928 56.2789L226.828 48.3589L231.788 53.3189Z" fill="#F86464"/>
    <path d="M236.618 58.1189L226.188 68.5789L239.468 80.4689L249.558 71.1189L236.618 58.1189Z" fill="#F86464"/>
    <path d="M235.588 99.5989C235.535 99.7345 235.521 99.8822 235.548 100.025C235.574 100.168 235.64 100.301 235.738 100.409V103.599H271.708V100.409C271.51 100.178 271.375 99.8984 271.318 99.5989H235.588Z" fill="#61C4F2"/>
    <path d="M226.838 106.599C226.774 106.885 226.741 107.176 226.738 107.469V112.599H280.708V107.469C280.703 107.176 280.666 106.884 280.598 106.599H226.838Z" fill="#61C4F2"/>
    <path d="M271.238 68.0989V10.0989H235.238" stroke="#263357" stroke-width="3" stroke-linecap="round" stroke-linejoin="round"/>
    <path d="M202.238 75.0989V30.0989H236.238" stroke="#263357" stroke-width="3" stroke-linecap="round" stroke-linejoin="round"/>
    <path d="M270.238 18.0989H261.238" stroke="#263357" stroke-width="3" stroke-linecap="round" stroke-linejoin="round"/>
    <path d="M270.238 27.0989H261.238" stroke="#263357" stroke-width="3" stroke-linecap="round" stroke-linejoin="round"/>
    <path d="M270.238 36.0989H261.238" stroke="#263357" stroke-width="3" stroke-linecap="round" stroke-linejoin="round"/>
    <path d="M270.238 45.0989H261.238" stroke="#263357" stroke-width="3" stroke-linecap="round" stroke-linejoin="round"/>
    <path d="M270.238 54.0989H261.238" stroke="#263357" stroke-width="3" stroke-linecap="round" stroke-linejoin="round"/>
    <path d="M270.238 63.0989H261.238" stroke="#263357" stroke-width="3" stroke-linecap="round" stroke-linejoin="round"/>
    <path d="M298.238 112.099V48.0989H271.238V88.0989" stroke="#263357" stroke-width="3" stroke-linecap="round" stroke-linejoin="round"/>
    <path d="M289.238 63.0989V113.099" stroke="#263357" stroke-width="3" stroke-linecap="round" stroke-linejoin="round"/>
    <path d="M280.238 63.0989V96.0989" stroke="#263357" stroke-width="3" stroke-linecap="round" stroke-linejoin="round"/>
    <path d="M241.238 10.0989V44.0989" stroke="#263357" stroke-width="3" stroke-linecap="round" stroke-linejoin="round"/>
    <path d="M247.238 10.0989V47.0989" stroke="#263357" stroke-width="3" stroke-linecap="round" stroke-linejoin="round"/>
    <path d="M235.238 10.0989V30.0989" stroke="#263357" stroke-width="3" stroke-linecap="round" stroke-linejoin="round"/>
    <path d="M271.238 57.0989H298.238" stroke="#263357" stroke-width="3" stroke-linecap="round" stroke-linejoin="round"/>
    <path d="M271.238 63.0989H298.238" stroke="#263357" stroke-width="3" stroke-linecap="round" stroke-linejoin="round"/>
    <path d="M304.438 53.0689C305.267 53.0689 305.938 52.3973 305.938 51.5689C305.938 50.7405 305.267 50.0689 304.438 50.0689C303.61 50.0689 302.938 50.7405 302.938 51.5689C302.938 52.3973 303.61 53.0689 304.438 53.0689Z" fill="#263357"/>
    <path d="M196.508 57.5689C197.337 57.5689 198.008 56.8973 198.008 56.0689C198.008 55.2405 197.337 54.5689 196.508 54.5689C195.68 54.5689 195.008 55.2405 195.008 56.0689C195.008 56.8973 195.68 57.5689 196.508 57.5689Z" fill="#263357"/>
    <path d="M304.238 56.0989V93.0989" stroke="#263357" stroke-width="3" stroke-linecap="round" stroke-linejoin="round"/>
    <path d="M198.238 113.099H309.238" stroke="#263357" stroke-width="3" stroke-linecap="round" stroke-linejoin="round"/>
    <path d="M272.948 42.0989H296.948L298.448 48.0989H271.448L272.948 42.0989Z" stroke="#263357" stroke-width="3" stroke-linecap="round" stroke-linejoin="round"/>
    <path d="M275.948 36.0989H293.948L295.448 42.0989H274.448L275.948 36.0989Z" stroke="#263357" stroke-width="3" stroke-linecap="round" stroke-linejoin="round"/>
    <path d="M278.948 30.0989H290.948L292.448 36.0989H277.448L278.948 30.0989Z" stroke="#263357" stroke-width="3" stroke-linecap="round" stroke-linejoin="round"/>
    <path d="M281.948 24.0989H287.948L289.448 30.0989H280.448L281.948 24.0989Z" stroke="#263357" stroke-width="3" stroke-linecap="round" stroke-linejoin="round"/>
    <path d="M286.738 15.5989H283.738V22.5989H286.738V15.5989Z" fill="#1C3E58"/>
    <path d="M241.238 30.0989H202.238V36.0989H241.238V30.0989Z" stroke="#263357" stroke-width="3" stroke-linecap="round" stroke-linejoin="round"/>
    <path d="M210.238 42.0989V51.0989" stroke="#263357" stroke-width="3" stroke-linecap="round" stroke-linejoin="round"/>
    <path d="M210.238 59.0989V68.0989" stroke="#263357" stroke-width="3" stroke-linecap="round" stroke-linejoin="round"/>
    <path d="M231.458 104.119H275.008C276.393 104.119 277.72 104.669 278.699 105.648C279.678 106.627 280.228 107.954 280.228 109.339V113.119H226.228V109.319C226.234 107.936 226.787 106.612 227.768 105.637C228.748 104.662 230.076 104.116 231.458 104.119V104.119Z" stroke="#263357" stroke-width="3" stroke-linecap="round" stroke-linejoin="round"/>
    <path d="M240.458 97.1189H266.008C267.393 97.1189 268.72 97.6689 269.699 98.6478C270.678 99.6267 271.228 100.954 271.228 102.339V104.119H235.228V102.319C235.234 100.936 235.787 99.6121 236.768 98.6372C237.748 97.6623 239.076 97.1162 240.458 97.1189V97.1189Z" stroke="#263357" stroke-width="2.9" stroke-linecap="round" stroke-linejoin="round"/>
    <path d="M196.618 93.1689C197.507 93.1689 198.228 92.4481 198.228 91.5589C198.228 90.6697 197.507 89.9489 196.618 89.9489C195.729 89.9489 195.008 90.6697 195.008 91.5589C195.008 92.4481 195.729 93.1689 196.618 93.1689Z" fill="#263357"/>
    <path d="M251.699 61.9306L244.981 55.2131C243.005 53.2371 239.802 53.2371 237.825 55.2131L229.128 63.9105C227.152 65.8866 227.152 69.0904 229.128 71.0665L235.846 77.784C237.822 79.76 241.025 79.76 243.002 77.784L251.699 69.0866C253.675 67.1105 253.675 63.9067 251.699 61.9306Z" stroke="#263357" stroke-width="3" stroke-linecap="round" stroke-linejoin="round"/>
    <path d="M219.099 61.051L219.106 61.0581C220.473 62.425 222.689 62.425 224.056 61.0581L234.96 50.1545C236.327 48.7877 236.327 46.5716 234.96 45.2048L234.953 45.1977C233.586 43.8309 231.37 43.8309 230.003 45.1977L219.099 56.1013C217.733 57.4681 217.733 59.6842 219.099 61.051Z" stroke="#263357" stroke-width="3" stroke-linecap="round" stroke-linejoin="round"/>
    <path d="M245.859 87.7967L245.866 87.8038C247.233 89.1706 249.449 89.1706 250.816 87.8037L261.72 76.9002C263.087 75.5333 263.087 73.3173 261.72 71.9504L261.713 71.9433C260.346 70.5765 258.13 70.5765 256.763 71.9433L245.859 82.8469C244.493 84.2138 244.493 86.4298 245.859 87.7967Z" stroke="#263357" stroke-width="3" stroke-linecap="round" stroke-linejoin="round"/>
    <path d="M199.788 107.119C199.277 106.609 198.875 106.001 198.607 105.331C198.339 104.66 198.21 103.942 198.229 103.221C198.248 102.499 198.414 101.789 198.716 101.134C199.018 100.478 199.451 99.8914 199.988 99.4089L230.278 72.2289L234.708 76.6289L207.488 106.919C207.007 107.456 206.421 107.888 205.766 108.191C205.112 108.493 204.402 108.659 203.681 108.677C202.961 108.696 202.244 108.567 201.574 108.299C200.905 108.032 200.297 107.63 199.788 107.119V107.119Z" stroke="#263357" stroke-width="3" stroke-linecap="round" stroke-linejoin="round"/>
    <path d="M227.528 65.5089L223.568 61.5489" stroke="#263357" stroke-width="3" stroke-linecap="round" stroke-linejoin="round"/>
    <path d="M235.458 49.6589L239.418 53.6189" stroke="#263357" stroke-width="3" stroke-linecap="round" stroke-linejoin="round"/>
    <path d="M253.288 67.4889L257.258 71.4589" stroke="#263357" stroke-width="3" stroke-linecap="round" stroke-linejoin="round"/>
    <path d="M245.368 83.3489L241.398 79.3789" stroke="#263357" stroke-width="3" stroke-linecap="round" stroke-linejoin="round"/>
    <path d="M201.158 88.2589L207.528 82.5389L218.088 73.0589" stroke="#263357" stroke-width="3" stroke-linecap="round" stroke-linejoin="round"/>
    <path d="M196.238 35.0989V51.0989" stroke="#263357" stroke-width="3" stroke-linecap="round" stroke-linejoin="round"/>
    <path d="M290.948 122.019C291.777 122.019 292.448 121.347 292.448 120.519C292.448 119.69 291.777 119.019 290.948 119.019C290.12 119.019 289.448 119.69 289.448 120.519C289.448 121.347 290.12 122.019 290.948 122.019Z" fill="#263357"/>
    <path d="M210.238 120.099H286.238" stroke="#263357" stroke-width="3" stroke-linecap="round" stroke-linejoin="round"/>
    <path d="M32.1736 213.809V200.309C32.1723 199.061 32.4171 197.825 32.8941 196.672C33.371 195.519 34.0707 194.471 34.9531 193.589C35.8356 192.706 36.8834 192.006 38.0365 191.529C39.1897 191.052 40.4257 190.808 41.6736 190.809H110.674C111.922 190.808 113.157 191.052 114.311 191.529C115.464 192.006 116.512 192.706 117.394 193.589C118.276 194.471 118.976 195.519 119.453 196.672C119.93 197.825 120.175 199.061 120.174 200.309V215.309C120.175 216.557 119.93 217.793 119.453 218.946C118.976 220.099 118.276 221.147 117.394 222.029C116.512 222.912 115.464 223.612 114.311 224.088C113.157 224.565 111.922 224.81 110.674 224.809H105.084L106.084 236.809L96.3336 228.149" stroke="#263357" stroke-width="3" stroke-linecap="round" stroke-linejoin="round"/>
    <path d="M96.1736 242.809H110.674C111.922 242.808 113.157 243.052 114.311 243.529C115.464 244.006 116.512 244.706 117.394 245.589C118.276 246.471 118.976 247.519 119.453 248.672C119.93 249.825 120.175 251.061 120.174 252.309V267.309C120.175 268.557 119.93 269.793 119.453 270.946C118.976 272.099 118.276 273.147 117.394 274.029C116.512 274.912 115.464 275.612 114.311 276.088C113.157 276.565 111.922 276.81 110.674 276.809H105.084L106.084 288.809L92.5836 276.809H41.6736C40.4257 276.81 39.1897 276.565 38.0365 276.088C36.8834 275.612 35.8356 274.912 34.9531 274.029C34.0707 273.147 33.371 272.099 32.8941 270.946C32.4171 269.793 32.1723 268.557 32.1736 267.309V251.809" stroke="#263357" stroke-width="3" stroke-linecap="round" stroke-linejoin="round"/>
    <path d="M17.1336 248.309H22.7236L21.7236 260.309L35.2236 248.309H86.2236C88.7284 248.298 91.1274 247.298 92.8976 245.526C94.6678 243.754 95.6657 241.354 95.6736 238.849V223.769C95.6657 221.262 94.6665 218.861 92.8941 217.088C91.1217 215.316 88.7201 214.317 86.2136 214.309H17.1336C14.6271 214.317 12.2255 215.316 10.4531 217.088C8.68071 218.861 7.6815 221.262 7.67358 223.769V238.849C7.6815 241.355 8.68071 243.757 10.4531 245.529C12.2255 247.302 14.6271 248.301 17.1336 248.309Z" fill="#61C4F2"/>
    <path d="M17.6736 248.809H23.2636L22.2636 260.809L35.7636 248.809H86.6736C87.9215 248.81 89.1575 248.565 90.3106 248.088C91.4638 247.612 92.5116 246.912 93.394 246.029C94.2765 245.147 94.9762 244.099 95.4531 242.946C95.9301 241.793 96.1749 240.557 96.1736 239.309V224.309C96.1749 223.061 95.9301 221.825 95.4531 220.672C94.9762 219.519 94.2765 218.471 93.394 217.589C92.5116 216.706 91.4638 216.006 90.3106 215.529C89.1575 215.052 87.9215 214.808 86.6736 214.809H17.6736C16.4257 214.808 15.1897 215.052 14.0365 215.529C12.8834 216.006 11.8356 216.706 10.9531 217.589C10.0707 218.471 9.37101 219.519 8.89405 220.672C8.4171 221.825 8.17227 223.061 8.17359 224.309V239.309C8.17227 240.557 8.4171 241.793 8.89405 242.946C9.37101 244.099 10.0707 245.147 10.9531 246.029C11.8356 246.912 12.8834 247.612 14.0365 248.088C15.1897 248.565 16.4257 248.81 17.6736 248.809Z" stroke="#263357" stroke-width="3" stroke-linecap="round" stroke-linejoin="round"/>
    <path d="M43.1736 256.809H72.1736" stroke="#263357" stroke-width="3" stroke-linecap="round" stroke-linejoin="round"/>
    <path d="M43.1736 264.809H72.1736" stroke="#263357" stroke-width="3" stroke-linecap="round" stroke-linejoin="round"/>
    <path d="M79.1736 256.809H108.174" stroke="#263357" stroke-width="3" stroke-linecap="round" stroke-linejoin="round"/>
    <path d="M43.1736 204.809H72.1736" stroke="#263357" stroke-width="3" stroke-linecap="round" stroke-linejoin="round"/>
    <path d="M96.1736 204.809H108.174" stroke="#263357" stroke-width="3" stroke-linecap="round" stroke-linejoin="round"/>
    <path d="M79.1736 204.809H90.1736" stroke="#263357" stroke-width="3" stroke-linecap="round" stroke-linejoin="round"/>
    <path d="M80.1736 266.309C81.002 266.309 81.6736 265.637 81.6736 264.809C81.6736 263.981 81.002 263.309 80.1736 263.309C79.3452 263.309 78.6736 263.981 78.6736 264.809C78.6736 265.637 79.3452 266.309 80.1736 266.309Z" fill="#263357"/>
    <path d="M86.1736 266.309C87.002 266.309 87.6736 265.637 87.6736 264.809C87.6736 263.981 87.002 263.309 86.1736 263.309C85.3452 263.309 84.6736 263.981 84.6736 264.809C84.6736 265.637 85.3452 266.309 86.1736 266.309Z" fill="#263357"/>
    <path d="M92.1736 266.309C93.002 266.309 93.6736 265.637 93.6736 264.809C93.6736 263.981 93.002 263.309 92.1736 263.309C91.3452 263.309 90.6736 263.981 90.6736 264.809C90.6736 265.637 91.3452 266.309 92.1736 266.309Z" fill="#263357"/>
    <path d="M66.6736 240.309H69.6736V237.309H66.6736V240.309ZM72.9736 223.819C71.7662 222.832 70.2298 222.339 68.6736 222.439C67.2389 222.392 65.8302 222.829 64.6736 223.679C64.1475 224.103 63.7331 224.648 63.4664 225.269C63.1997 225.889 63.0889 226.566 63.1436 227.239V227.309H66.5836C66.569 227.019 66.6178 226.729 66.7266 226.459C66.8354 226.19 67.0016 225.948 67.2136 225.749C67.6215 225.404 68.1393 225.216 68.6736 225.219C68.9823 225.199 69.2918 225.244 69.5814 225.353C69.8711 225.462 70.1343 225.631 70.3536 225.849C70.764 226.333 70.9718 226.956 70.9336 227.589C70.9416 228.229 70.7645 228.857 70.4236 229.399C70.0509 229.975 69.5884 230.489 69.0536 230.919C68.2842 231.439 67.6081 232.084 67.0536 232.829C66.7182 233.61 66.5874 234.463 66.6736 235.309H70.1936C70.1739 234.773 70.2519 234.237 70.4236 233.729C70.6499 233.267 70.9951 232.874 71.4236 232.589C72.3124 232.013 73.0801 231.269 73.6836 230.399C74.2707 229.565 74.5851 228.569 74.5836 227.549C74.6071 226.847 74.4749 226.148 74.1965 225.504C73.9182 224.859 73.5006 224.283 72.9736 223.819Z" fill="white"/>
    <path d="M50.6736 240.309H53.6736V237.309H50.6736V240.309ZM56.9736 223.819C55.7662 222.832 54.2298 222.339 52.6736 222.439C51.2389 222.392 49.8302 222.829 48.6736 223.679C48.1475 224.103 47.7331 224.648 47.4664 225.269C47.1997 225.889 47.0889 226.566 47.1436 227.239V227.309H50.5836C50.569 227.019 50.6178 226.729 50.7266 226.459C50.8354 226.19 51.0016 225.948 51.2136 225.749C51.6215 225.404 52.1393 225.216 52.6736 225.219C52.9823 225.199 53.2918 225.244 53.5814 225.353C53.8711 225.462 54.1343 225.631 54.3536 225.849C54.764 226.333 54.9718 226.956 54.9336 227.589C54.9416 228.229 54.7645 228.857 54.4236 229.399C54.0509 229.975 53.5884 230.489 53.0536 230.919C52.2842 231.439 51.6081 232.084 51.0536 232.829C50.7182 233.61 50.5874 234.463 50.6736 235.309H54.1936C54.174 234.773 54.2519 234.237 54.4236 233.729C54.6499 233.267 54.9951 232.874 55.4236 232.589C56.3124 232.013 57.0801 231.269 57.6836 230.399C58.2707 229.565 58.5851 228.569 58.5836 227.549C58.6071 226.847 58.4749 226.148 58.1965 225.504C57.9182 224.859 57.5006 224.283 56.9736 223.819Z" fill="white"/>
    <path d="M34.6736 240.309H37.6736V237.309H34.6736V240.309ZM40.9736 223.819C39.7662 222.832 38.2298 222.339 36.6736 222.439C35.2389 222.392 33.8302 222.829 32.6736 223.679C32.1475 224.103 31.7331 224.648 31.4664 225.269C31.1997 225.889 31.0889 226.566 31.1436 227.239V227.309H34.5836C34.569 227.019 34.6178 226.729 34.7266 226.459C34.8354 226.19 35.0016 225.948 35.2136 225.749C35.6215 225.404 36.1393 225.216 36.6736 225.219C36.9823 225.199 37.2918 225.244 37.5814 225.353C37.8711 225.462 38.1343 225.631 38.3536 225.849C38.764 226.333 38.9718 226.956 38.9336 227.589C38.9416 228.229 38.7645 228.857 38.4236 229.399C38.0509 229.975 37.5884 230.489 37.0536 230.919C36.2842 231.439 35.6081 232.084 35.0536 232.829C34.7182 233.61 34.5874 234.463 34.6736 235.309H38.1936C38.174 234.773 38.2519 234.237 38.4236 233.729C38.6499 233.267 38.9951 232.874 39.4236 232.589C40.3124 232.013 41.0801 231.269 41.6836 230.399C42.2707 229.565 42.5851 228.569 42.5836 227.549C42.6071 226.847 42.4749 226.148 42.1965 225.504C41.9182 224.859 41.5006 224.283 40.9736 223.819Z" fill="white"/>
    <path d="M602.404 66.9889L617.114 111.879C617.285 112.352 617.266 112.872 617.061 113.331C616.856 113.79 616.481 114.151 616.014 114.339V114.339C615.578 114.517 615.091 114.53 614.646 114.375C614.201 114.221 613.827 113.909 613.594 113.499L597.594 81.9589" stroke="#263357" stroke-width="3" stroke-linecap="round" stroke-linejoin="round"/>
    <path d="M603.464 56.3289C603.467 62.8055 602.259 69.2257 599.904 75.2589L586.494 113.629C586.318 114.126 585.96 114.538 585.493 114.781C585.025 115.024 584.482 115.081 583.974 114.939V114.939C583.485 114.801 583.064 114.489 582.79 114.061C582.515 113.634 582.406 113.121 582.484 112.619L588.594 73.2589C588.735 72.4839 588.634 71.6842 588.304 70.9689C587.443 69.0091 587.171 66.8405 587.524 64.7289C587.679 63.6872 587.993 62.6755 588.454 61.7289C590.294 57.3489 591.984 57.0489 592.784 54.7289C593.964 51.3689 591.204 50.9189 589.554 43.6089C589.025 41.2498 588.724 38.8455 588.654 36.4289" stroke="#263357" stroke-width="3" stroke-linecap="round" stroke-linejoin="round"/>
    <path d="M596.724 31.9289C597.094 35.2589 604.644 36.9289 605.394 39.5789C606.094 41.9689 603.544 45.2489 603.544 46.6789" stroke="#263357" stroke-width="3" stroke-linecap="round" stroke-linejoin="round"/>
    <path d="M595.694 26.9989C596.823 27.8899 598.157 28.4845 599.574 28.7289C600.057 28.8361 600.554 28.8598 601.044 28.7989C603.984 28.3089 606.314 23.3189 606.494 19.0189C606.654 15.4989 605.024 9.9189 600.114 7.9289C595.674 6.1189 590.514 8.0889 587.994 11.1389C584.904 14.8889 587.134 18.6789 583.894 24.0589C582.409 26.4803 580.348 28.4968 577.894 29.9289C578.134 30.3789 580.374 34.5089 584.694 34.9989C586.4 35.1059 588.103 34.7349 589.61 33.9276C591.116 33.1203 592.368 31.9086 593.224 30.4289C595.764 26.0689 592.404 22.3489 595.514 17.8489C596.409 16.4763 597.704 15.4116 599.224 14.7989C600.598 14.2843 602.092 14.1801 603.524 14.4989C604.543 14.7378 605.5 15.1875 606.334 15.8189" stroke="#263357" stroke-width="3" stroke-linecap="round" stroke-linejoin="round"/>
    <path d="M569.844 115.419H688.844" stroke="#263357" stroke-width="3" stroke-linecap="round" stroke-linejoin="round"/>
    <path d="M586.314 120.759H663.314" stroke="#263357" stroke-width="3" stroke-linecap="round" stroke-linejoin="round"/>
    <path d="M589.184 60.1889C593.323 62.7129 598.232 63.6641 603.014 62.8689" stroke="#263357" stroke-width="3" stroke-linecap="round" stroke-linejoin="round"/>
    <path d="M654.314 52.7589H654.524C660.038 52.7589 665.326 54.9493 669.225 58.8482C673.124 62.747 675.314 68.0351 675.314 73.5489V73.7589H654.314V52.7589Z" stroke="#263357" stroke-width="3" stroke-linecap="round" stroke-linejoin="round"/>
    <path d="M643.414 114.869C647.926 114.869 651.584 111.211 651.584 106.699C651.584 102.187 647.926 98.5289 643.414 98.5289C638.902 98.5289 635.244 102.187 635.244 106.699C635.244 111.211 638.902 114.869 643.414 114.869Z" stroke="#263357" stroke-width="3" stroke-linecap="round" stroke-linejoin="round"/>
    <path d="M665.684 114.869C670.196 114.869 673.854 111.211 673.854 106.699C673.854 102.187 670.196 98.5289 665.684 98.5289C661.172 98.5289 657.514 102.187 657.514 106.699C657.514 111.211 661.172 114.869 665.684 114.869Z" stroke="#263357" stroke-width="3" stroke-linecap="round" stroke-linejoin="round"/>
    <path d="M654.314 96.0289C648.776 96.0555 643.454 93.8831 639.517 89.9888C635.579 86.0945 633.349 80.7967 633.314 75.2589V73.7589H675.314V75.2589C675.28 80.7967 673.049 86.0945 669.112 89.9888C665.174 93.8831 659.852 96.0555 654.314 96.0289Z" fill="#F86464" stroke="#263357" stroke-width="3" stroke-linecap="round" stroke-linejoin="round"/>
    <path d="M621.884 58.9089C623.853 58.9116 625.74 59.6955 627.132 61.0886C628.523 62.4817 629.304 64.3701 629.304 66.3389C629.304 68.3068 630.086 70.1941 631.478 71.5856C632.869 72.9772 634.756 73.7589 636.724 73.7589H645.314" stroke="#263357" stroke-width="3" stroke-linecap="round" stroke-linejoin="round"/>
    <path d="M664.934 28.9389C669.137 28.9389 672.544 25.5318 672.544 21.3289C672.544 17.126 669.137 13.7189 664.934 13.7189C660.731 13.7189 657.324 17.126 657.324 21.3289C657.324 25.5318 660.731 28.9389 664.934 28.9389Z" fill="#61C4F2"/>
    <path d="M669.184 10.6689L670.094 8.29889" stroke="#61C4F2" stroke-width="3" stroke-linecap="round" stroke-linejoin="round"/>
    <path d="M660.454 10.9089L659.424 8.5889" stroke="#61C4F2" stroke-width="3" stroke-linecap="round" stroke-linejoin="round"/>
    <path d="M654.274 17.2589L651.904 16.3489" stroke="#61C4F2" stroke-width="3" stroke-linecap="round" stroke-linejoin="round"/>
    <path d="M654.514 25.9889L652.194 27.0289" stroke="#61C4F2" stroke-width="3" stroke-linecap="round" stroke-linejoin="round"/>
    <path d="M660.864 31.9989L659.954 34.3689" stroke="#61C4F2" stroke-width="3" stroke-linecap="round" stroke-linejoin="round"/>
    <path d="M669.594 31.7589L670.634 34.0689" stroke="#61C4F2" stroke-width="3" stroke-linecap="round" stroke-linejoin="round"/>
    <path d="M675.604 25.4089L677.974 26.3089" stroke="#61C4F2" stroke-width="3" stroke-linecap="round" stroke-linejoin="round"/>
    <path d="M675.364 16.6689L677.674 15.6389" stroke="#61C4F2" stroke-width="3" stroke-linecap="round" stroke-linejoin="round"/>
    <path d="M646.814 38.2589C647.041 37.643 647.114 36.9814 647.029 36.3308C646.944 35.6802 646.702 35.0599 646.324 34.5232C645.947 33.9865 645.445 33.5492 644.861 33.2489C644.278 32.9486 643.63 32.7942 642.974 32.7989C642.973 30.8051 642.243 28.8806 640.922 27.3871C639.601 25.8935 637.781 24.9337 635.802 24.6881C633.823 24.4424 631.823 24.9279 630.177 26.0532C628.532 27.1784 627.353 28.8661 626.864 30.7989C626.027 30.3683 625.106 30.1239 624.166 30.0825C623.225 30.0411 622.286 30.2036 621.414 30.5589C619.918 31.1388 618.676 32.2313 617.911 33.6416C617.145 35.0519 616.905 36.6883 617.234 38.2589H646.814Z" fill="#61C4F2"/>
    <path d="M597.974 38.2589C599.381 42.7805 602.022 46.8197 605.599 49.9221C609.177 53.0244 613.549 55.0666 618.224 55.8189C618.914 55.9914 619.52 56.4031 619.934 56.9807C620.348 57.5582 620.544 58.2641 620.486 58.9725C620.429 59.6809 620.121 60.3458 619.619 60.8488C619.117 61.3518 618.453 61.6601 617.744 61.7189C617.581 61.7334 617.417 61.7334 617.254 61.7189C611.493 60.7861 606.105 58.2649 601.698 54.4385C597.29 50.6122 594.037 45.6324 592.304 40.0589" stroke="#263357" stroke-width="3" stroke-linecap="round" stroke-linejoin="round"/>
    <path d="M681.274 69.0289C681.266 63.6198 679.31 58.3946 675.764 54.3103C672.218 50.2259 667.319 47.5558 661.964 46.7889" stroke="#263357" stroke-width="3" stroke-linecap="round" stroke-linejoin="round"/>
    <path d="M582.984 59.4189C582.301 60.885 581.842 62.4459 581.624 64.0489C581.186 67.0357 581.53 70.0853 582.624 72.8989L580.154 89.1789" stroke="#263357" stroke-width="3" stroke-linecap="round" stroke-linejoin="round"/>
    <path d="M669.694 120.789C669.702 120.462 669.613 120.141 669.438 119.865C669.263 119.589 669.01 119.371 668.711 119.239C668.412 119.108 668.08 119.068 667.759 119.124C667.437 119.181 667.139 119.332 666.903 119.558C666.667 119.784 666.504 120.075 666.433 120.394C666.363 120.713 666.389 121.046 666.508 121.35C666.627 121.654 666.834 121.917 667.102 122.103C667.37 122.29 667.688 122.393 668.014 122.399C668.231 122.404 668.446 122.367 668.647 122.289C668.849 122.21 669.033 122.093 669.189 121.943C669.345 121.794 669.47 121.615 669.557 121.417C669.644 121.218 669.69 121.005 669.694 120.789Z" fill="#263357"/>
    <path d="M683.164 74.6489C683.17 74.3246 683.08 74.0059 682.904 73.733C682.729 73.4601 682.477 73.2453 682.18 73.1157C681.882 72.9861 681.553 72.9477 681.234 73.0051C680.915 73.0626 680.62 73.2134 680.386 73.4385C680.153 73.6636 679.991 73.9529 679.922 74.2698C679.853 74.5867 679.879 74.917 679.998 75.2188C680.117 75.5207 680.322 75.7807 680.588 75.9658C680.855 76.1509 681.17 76.2529 681.494 76.2589C681.71 76.2642 681.925 76.2266 682.126 76.1484C682.327 76.0701 682.51 75.9526 682.666 75.8029C682.821 75.6531 682.945 75.474 683.031 75.2759C683.116 75.0778 683.162 74.8647 683.164 74.6489Z" fill="#263357"/>
    <path d="M587.564 54.6689C587.574 54.3439 587.487 54.0233 587.314 53.7478C587.142 53.4723 586.891 53.2544 586.594 53.1218C586.297 52.9892 585.967 52.9478 585.647 53.0029C585.327 53.0581 585.03 53.2072 584.794 53.4314C584.559 53.6557 584.395 53.9448 584.324 54.2622C584.254 54.5796 584.279 54.9108 584.397 55.2139C584.515 55.5169 584.72 55.778 584.987 55.9641C585.253 56.1502 585.569 56.2528 585.894 56.2589C586.108 56.2642 586.321 56.2273 586.521 56.1503C586.721 56.0732 586.904 55.9576 587.059 55.8099C587.214 55.6623 587.338 55.4855 587.425 55.2897C587.512 55.0939 587.559 54.883 587.564 54.6689Z" fill="#263357"/>
    <path d="M449.051 283.809H425.051" stroke="#263357" stroke-width="3" stroke-linecap="round" stroke-linejoin="round"/>
    <path d="M409.051 283.809H398.371C397.227 283.804 396.131 283.347 395.322 282.538C394.513 281.729 394.057 280.633 394.051 279.489V196.129C394.057 194.985 394.513 193.889 395.322 193.08C396.131 192.271 397.227 191.814 398.371 191.809H444.171C444.675 191.81 445.174 191.91 445.639 192.104C446.104 192.298 446.526 192.582 446.881 192.939L465.951 212.159C466.654 212.878 467.049 213.843 467.051 214.849V265.849" stroke="#263357" stroke-width="3" stroke-linecap="round" stroke-linejoin="round"/>
    <path d="M453.681 213.809H465.261C465.434 213.805 465.601 213.752 465.743 213.655C465.886 213.559 465.997 213.423 466.064 213.264C466.131 213.105 466.15 212.93 466.119 212.761C466.089 212.591 466.009 212.434 465.891 212.309L447.421 193.809C447.309 193.695 447.166 193.618 447.01 193.586C446.853 193.555 446.691 193.57 446.544 193.632C446.397 193.693 446.271 193.797 446.183 193.93C446.096 194.063 446.05 194.219 446.051 194.379V206.179C446.057 208.201 446.862 210.139 448.292 211.568C449.722 212.998 451.659 213.804 453.681 213.809V213.809Z" stroke="#263357" stroke-width="3" stroke-linecap="round" stroke-linejoin="round"/>
    <path d="M416.621 252.309C424.921 251.969 431.621 257.579 432.041 266.669" stroke="#263357" stroke-width="3" stroke-linecap="round" stroke-linejoin="round"/>
    <path d="M409.051 276.379V294.079L416.551 289.079L424.051 294.079V275.809" stroke="#263357" stroke-width="3" stroke-linecap="round" stroke-linejoin="round"/>
    <path d="M406.051 228.809H441.051" stroke="#263357" stroke-width="3" stroke-linecap="round" stroke-linejoin="round"/>
    <path d="M406.051 236.809H455.051" stroke="#263357" stroke-width="3" stroke-linecap="round" stroke-linejoin="round"/>
    <path d="M406.051 243.809H455.051" stroke="#263357" stroke-width="3" stroke-linecap="round" stroke-linejoin="round"/>
    <path d="M424.551 203.309H406.551V221.309H424.551V203.309Z" fill="#F86464"/>
    <path d="M406.051 183.809H443.991C445.494 183.806 446.983 184.101 448.371 184.676C449.76 185.25 451.02 186.095 452.081 187.159L461.481 196.559" stroke="#263357" stroke-width="3" stroke-linecap="round" stroke-linejoin="round"/>
    <path d="M466.271 200.609C466.271 200.912 466.182 201.207 466.013 201.459C465.845 201.711 465.606 201.907 465.327 202.023C465.047 202.138 464.74 202.169 464.443 202.11C464.146 202.051 463.873 201.905 463.659 201.691C463.445 201.477 463.3 201.204 463.241 200.907C463.182 200.611 463.212 200.303 463.328 200.023C463.444 199.744 463.64 199.505 463.891 199.337C464.143 199.169 464.439 199.079 464.741 199.079C465.147 199.079 465.536 199.24 465.823 199.527C466.11 199.814 466.271 200.203 466.271 200.609Z" fill="#263357"/>
    <path d="M423.83 275.876C427.954 271.752 427.954 265.066 423.83 260.942C419.706 256.818 413.02 256.818 408.896 260.942C404.772 265.066 404.772 271.752 408.896 275.876C413.02 280 419.706 280 423.83 275.876Z" stroke="#263357" stroke-width="3" stroke-linecap="round" stroke-linejoin="round"/>
    <path d="M477.051 265.809H456.051V271.809H477.051V265.809Z" stroke="#263357" stroke-width="2.98" stroke-linecap="round" stroke-linejoin="round"/>
    <path d="M448.661 277.309C451.487 276.912 454.347 276.828 457.191 277.059C464.641 277.669 467.471 280.139 472.831 280.239C475.731 280.239 480.091 279.659 485.551 276.039V284.689L483.491 286.739L452.031 286.599L448.791 283.419L448.661 277.309Z" fill="#61C4F2"/>
    <path d="M457.091 271.809H477.011C479.133 271.809 481.168 272.652 482.668 274.152C484.168 275.652 485.011 277.687 485.011 279.809V282.959C485.011 283.967 484.611 284.933 483.898 285.646C483.186 286.359 482.219 286.759 481.211 286.759H452.851C451.843 286.759 450.877 286.359 450.164 285.646C449.452 284.933 449.051 283.967 449.051 282.959V279.809C449.051 278.755 449.26 277.711 449.664 276.738C450.069 275.765 450.661 274.881 451.409 274.138C452.156 273.395 453.042 272.806 454.018 272.406C454.993 272.007 456.037 271.804 457.091 271.809V271.809Z" stroke="#263357" stroke-width="2.98" stroke-linecap="round" stroke-linejoin="round"/>
    <path d="M483.391 238.389C483.336 238.231 483.314 238.063 483.325 237.896C483.335 237.729 483.379 237.566 483.454 237.416C483.528 237.266 483.632 237.133 483.758 237.023C483.885 236.914 484.032 236.831 484.191 236.779L491.491 234.309C492.61 228.034 492.32 221.588 490.641 215.439C480.984 219.259 473.085 226.52 468.468 235.823C463.851 245.125 462.844 255.808 465.641 265.809C475.281 261.944 483.178 254.694 487.851 245.419C489.138 242.792 490.144 240.037 490.851 237.199L484.971 239.199C484.654 239.294 484.313 239.263 484.018 239.112C483.723 238.961 483.499 238.702 483.391 238.389Z" fill="#61C4F2"/>
    <path d="M476.861 239.849C473.31 246.606 470.125 253.549 467.321 260.649C464.511 267.762 462.091 275.023 460.071 282.399" stroke="#263357" stroke-width="3" stroke-linecap="round" stroke-linejoin="round"/>
    <path d="M433.551 272.179C433.551 272.482 433.461 272.777 433.293 273.029C433.125 273.281 432.886 273.477 432.607 273.593C432.327 273.708 432.02 273.739 431.723 273.68C431.426 273.621 431.153 273.475 430.939 273.261C430.725 273.047 430.58 272.774 430.521 272.477C430.462 272.181 430.492 271.873 430.608 271.593C430.723 271.314 430.92 271.075 431.171 270.907C431.423 270.739 431.719 270.649 432.021 270.649C432.223 270.648 432.422 270.686 432.608 270.763C432.795 270.839 432.964 270.952 433.106 271.094C433.248 271.236 433.361 271.406 433.437 271.592C433.514 271.778 433.553 271.978 433.551 272.179Z" fill="#263357"/>
    <path d="M216.238 293.809L223.348 284.809L198.528 263.529L190.848 272.949L216.238 293.809Z" fill="#79C651"/>
    <path d="M294.958 202.929C292.598 196.459 286.438 193.599 281.878 193.119" stroke="#252D32" stroke-width="3" stroke-linecap="round" stroke-linejoin="round"/>
    <path d="M295.438 213.939C295.861 212.337 296.073 210.686 296.068 209.029" stroke="#252D32" stroke-width="3" stroke-linecap="round" stroke-linejoin="round"/>
    <path d="M231.768 199.479C237.648 183.299 259.618 180.189 266.978 191.959C274.328 180.189 296.808 183.299 302.698 199.479C309.438 218.029 293.448 237.179 266.978 250.419C264.178 249.019 261.512 247.556 258.978 246.029" stroke="#252D32" stroke-width="3" stroke-linecap="round" stroke-linejoin="round"/>
    <path d="M245.238 213.199C249.738 206.019 263.158 207.809 266.758 217.679C270.878 228.989 258.538 241.089 244.238 249.149C228.018 241.079 219.538 228.989 223.658 217.679C227.238 207.809 240.738 206.019 245.238 213.199Z" fill="#FFC960"/>
    <path d="M242.858 209.279C247.858 201.339 262.918 203.439 266.858 214.349C271.408 226.859 260.688 240.669 242.858 249.599C225.008 240.669 214.568 226.859 219.118 214.349C223.078 203.439 237.898 201.339 242.858 209.279Z" stroke="#252D32" stroke-width="3" stroke-linecap="round" stroke-linejoin="round"/>
    <path d="M228.238 265.649C235.648 267.809 241.238 269.019 245.518 269.019C249.798 269.019 270.938 260.909 282.118 262.879C282.583 262.985 283.019 263.191 283.395 263.483C283.772 263.775 284.08 264.145 284.298 264.569C284.968 265.999 283.978 267.889 282.558 268.569C275.828 271.919 257.118 281.389 256.858 281.569C254.718 282.679 251.108 283.349 240.948 282.629C231.548 281.949 224.708 280.969 220.798 281.569" stroke="#252D32" stroke-width="3" stroke-linecap="round" stroke-linejoin="round"/>
    <path d="M202.768 266.709C211.148 255.859 221.468 253.129 222.918 252.929C227.308 252.319 232.338 254.069 248.368 259.289C248.998 259.494 249.58 259.821 250.082 260.253C250.584 260.684 250.995 261.211 251.292 261.802C251.589 262.394 251.765 263.039 251.811 263.699C251.857 264.359 251.771 265.022 251.558 265.649C251.171 266.43 250.617 267.118 249.937 267.664C249.257 268.209 248.465 268.6 247.618 268.809" stroke="#252D32" stroke-width="3" stroke-linecap="round" stroke-linejoin="round"/>
    <path d="M216.738 293.309L223.348 284.809L198.528 263.529L190.848 272.949" stroke="#252D32" stroke-width="3" stroke-linecap="round" stroke-linejoin="round"/>
    <path d="M669.844 225.809C670.964 225.827 672.065 226.109 673.056 226.63C674.048 227.151 674.904 227.897 675.554 228.809H680.344V200.809H660.614C660.948 211.816 659.099 222.78 655.174 233.069C650.684 245.209 644.064 255.459 636.624 262.809H655.344V267.599C654.432 268.25 653.686 269.105 653.165 270.097C652.644 271.089 652.363 272.189 652.344 273.309C652.344 277.449 656.154 280.809 660.844 280.809C665.534 280.809 669.344 277.449 669.344 273.309C669.326 272.189 669.045 271.089 668.524 270.097C668.003 269.105 667.256 268.25 666.344 267.599V262.809H680.344V239.809H675.554C674.904 240.721 674.048 241.467 673.056 241.988C672.065 242.509 670.964 242.79 669.844 242.809C665.704 242.809 662.344 238.999 662.344 234.309C662.344 229.619 665.704 225.809 669.844 225.809Z" fill="#79C651"/>
    <path d="M646.404 215.809H636.764C636.764 216.329 636.834 216.809 636.844 217.369C636.859 217.589 636.859 217.809 636.844 218.029C636.844 218.029 636.844 218.029 636.844 218.089C636.844 218.149 636.844 218.309 636.844 218.419C636.844 228.119 637.004 236.859 630.434 243.049C628.479 244.936 626.931 247.203 625.883 249.71C624.836 252.217 624.312 254.912 624.344 257.629V262.809H630.614C630.61 260.072 631.16 257.363 632.233 254.845C633.306 252.326 634.878 250.052 636.854 248.159C640.172 244.995 642.812 241.19 644.615 236.975C646.418 232.76 647.347 228.223 647.344 223.639C647.333 221.002 647.018 218.374 646.404 215.809Z" fill="#FFC960"/>
    <path d="M599.344 276.039V283.269L624.344 277.489V271.239L599.344 276.039Z" fill="#79C651"/>
    <path d="M616.844 261.309V240.309H607.844V261.309" stroke="#252D32" stroke-width="3" stroke-linecap="round" stroke-linejoin="round"/>
    <path d="M616.844 234.159V240.309H623.244C623.98 240.309 624.708 240.164 625.387 239.883C626.067 239.601 626.684 239.189 627.204 238.669C627.724 238.149 628.137 237.531 628.418 236.852C628.699 236.173 628.844 235.444 628.844 234.709V233.909C628.844 230.209 625.004 227.349 620.844 228.609C619.672 228.985 618.651 229.727 617.931 230.726C617.211 231.725 616.83 232.928 616.844 234.159V234.159Z" stroke="#252D32" stroke-width="3" stroke-linecap="round" stroke-linejoin="round"/>
    <path d="M595.844 234.159V234.709C595.844 235.444 595.989 236.173 596.271 236.852C596.552 237.531 596.964 238.149 597.484 238.669C598.004 239.189 598.622 239.601 599.301 239.883C599.981 240.164 600.709 240.309 601.444 240.309H607.844V233.909C607.844 230.209 604.004 227.349 599.844 228.609C598.672 228.985 597.651 229.727 596.931 230.726C596.211 231.725 595.83 232.928 595.844 234.159V234.159Z" stroke="#252D32" stroke-width="3" stroke-linecap="round" stroke-linejoin="round"/>
    <path d="M594.844 262.309V272.479C594.844 274.759 597.674 275.659 599.574 275.319L627.004 270.589C629.404 269.999 629.844 267.499 629.844 265.379V262.309" stroke="#252D32" stroke-width="3" stroke-linecap="round" stroke-linejoin="round"/>
    <path d="M597.844 276.309V280.749C597.919 281.081 598.06 281.395 598.259 281.671C598.458 281.947 598.711 282.18 599.003 282.356C599.294 282.531 599.618 282.646 599.955 282.693C600.293 282.74 600.636 282.718 600.964 282.629L622.064 278.899C624.844 277.969 624.844 277.049 624.844 275.189V271.309" stroke="#252D32" stroke-width="3" stroke-linecap="round" stroke-linejoin="round"/>
    <path d="M599.844 283.309V287.229C599.844 289.999 602.104 290.229 603.544 289.999L620.074 286.309C620.902 286.125 621.636 285.65 622.144 284.972C622.652 284.293 622.9 283.455 622.844 282.609V280.309" stroke="#252D32" stroke-width="3" stroke-linecap="round" stroke-linejoin="round"/>
    <path d="M607.844 289.309V290.199C607.823 291.353 608.231 292.475 608.988 293.346C609.745 294.218 610.798 294.778 611.944 294.919C612.567 294.973 613.194 294.897 613.785 294.696C614.377 294.495 614.92 294.173 615.381 293.751C615.842 293.329 616.21 292.816 616.462 292.244C616.714 291.672 616.844 291.054 616.844 290.429V287.309" stroke="#252D32" stroke-width="3" stroke-linecap="round" stroke-linejoin="round"/>
    <path d="M613.844 215.309V189.309C612.844 189.309 610.904 189.209 609.914 189.309C603.373 189.779 597.107 192.135 591.876 196.091C586.645 200.047 582.671 205.433 580.437 211.6C578.203 217.766 577.803 224.448 579.286 230.837C580.77 237.225 584.072 243.048 588.794 247.599C590.778 249.502 592.358 251.785 593.439 254.313C594.52 256.84 595.079 259.56 595.084 262.309H629.554C629.55 259.572 630.101 256.863 631.173 254.345C632.246 251.826 633.818 249.552 635.794 247.659C640.07 243.569 643.202 238.431 644.877 232.756C646.552 227.08 646.713 221.066 645.344 215.309H613.844Z" stroke="#252D32" stroke-width="3" stroke-linecap="round" stroke-linejoin="round"/>
    <path d="M636.844 262.309H654.844V267.099C653.932 267.75 653.186 268.605 652.665 269.597C652.144 270.589 651.863 271.689 651.844 272.809C651.844 276.949 655.654 280.309 660.344 280.309C665.034 280.309 668.844 276.949 668.844 272.809C668.826 271.689 668.545 270.589 668.024 269.597C667.503 268.605 666.756 267.75 665.844 267.099V262.309H679.844V239.309H675.054C674.404 240.221 673.548 240.967 672.556 241.488C671.564 242.009 670.464 242.29 669.344 242.309C665.204 242.309 661.844 238.499 661.844 233.809C661.844 229.119 665.204 225.309 669.344 225.309C670.464 225.327 671.564 225.609 672.556 226.13C673.548 226.651 674.404 227.397 675.054 228.309H679.844V200.309H658.844V195.519C659.756 194.868 660.503 194.013 661.024 193.021C661.545 192.029 661.826 190.929 661.844 189.809C661.844 185.669 658.034 182.309 653.344 182.309C648.654 182.309 644.844 185.669 644.844 189.809C644.863 190.929 645.144 192.029 645.665 193.021C646.186 194.013 646.932 194.868 647.844 195.519V200.309H619.844" stroke="#252D32" stroke-width="3" stroke-linecap="round" stroke-linejoin="round"/>
</svg>
