<svg width="260" height="260" viewBox="0 0 260 260" fill="none" xmlns="http://www.w3.org/2000/svg">
<path d="M24 43.3027H187.34C195.973 43.3027 202.991 36.3004 202.991 27.6514C202.991 19.0183 195.989 12 187.34 12H24V43.3027Z" fill="black"/>
<path d="M226.333 62.727H24V94.0137H226.349C234.982 94.0137 242 87.0114 242 78.3624C242 69.7134 234.982 62.727 226.333 62.727Z" fill="black"/>
<path d="M24 145.045H189.994C198.627 145.045 205.645 138.042 205.645 129.393C205.645 120.744 198.643 113.742 189.994 113.742H24V145.045Z" fill="black"/>
<path d="M226.333 164.181H24V195.468H226.349C234.982 195.468 242 188.466 242 179.817C241.984 171.184 234.982 164.181 226.333 164.181Z" fill="black"/>
<path d="M199.011 215.196H24V246.483H199.011C207.644 246.483 214.662 239.481 214.662 230.832C214.646 222.198 207.644 215.196 199.011 215.196Z" fill="black"/>
</svg>

