<svg width="512" height="512" viewBox="0 0 512 512" fill="none" xmlns="http://www.w3.org/2000/svg">
<rect width="512" height="512" fill="white"/>
<path d="M62.5778 100.005H361.774C377.588 100.005 390.443 87.1786 390.443 71.3359C390.443 55.5224 377.617 42.6667 361.774 42.6667H62.5778V100.005Z" fill="#00CCA2"/>
<path d="M433.198 135.585H62.5778V192.894H433.227C449.041 192.894 461.897 180.068 461.897 164.225C461.897 148.382 449.041 135.585 433.198 135.585Z" fill="black"/>
<path d="M62.5778 286.37H366.635C382.449 286.37 395.304 273.543 395.304 257.7C395.304 241.858 382.478 229.031 366.635 229.031H62.5778V286.37Z" fill="#00CCA2"/>
<path d="M433.198 321.423H62.5778V378.732H433.227C449.041 378.732 461.897 365.906 461.897 350.063C461.867 334.249 449.041 321.423 433.198 321.423Z" fill="black"/>
<path d="M383.151 414.869H62.5778V472.178H383.151C398.965 472.178 411.821 459.351 411.821 443.509C411.791 427.695 398.965 414.869 383.151 414.869Z" fill="#00CCA2"/>
</svg>
